<svg width="9" height="8" viewBox="0 0 9 8" fill="none" xmlns="http://www.w3.org/2000/svg">
<path d="M2.0934 1.93797H2.46904C2.6072 1.93797 2.71946 1.85178 2.71946 1.74626V0.191707C2.71946 0.0856677 2.6072 0 2.46904 0H2.0934C1.95578 0 1.84352 0.0856677 1.84352 0.191707V1.74626C1.84298 1.85178 1.95524 1.93797 2.0934 1.93797Z" fill="white"/>
<path d="M6.02297 1.93797H6.3986C6.53676 1.93797 6.64902 1.85178 6.64902 1.74626V0.191707C6.64902 0.0856677 6.53676 0 6.3986 0H6.02297C5.8848 0 5.77309 0.0856677 5.77309 0.191707V1.74626C5.77309 1.85178 5.8848 1.93797 6.02297 1.93797Z" fill="white"/>
<path d="M7.94539 0.741745H6.9491V1.93169C6.9491 2.19757 6.70192 2.41383 6.39806 2.41383H6.02243C5.71858 2.41383 5.4714 2.19757 5.4714 1.93169V0.741745H3.01899V1.93169C3.01899 2.19757 2.77181 2.41383 2.46795 2.41383H2.0934C1.79009 2.41383 1.54291 2.19757 1.54291 1.93169V0.741745H0.546616C0.380928 0.741745 0.246002 0.872336 0.246002 1.0327V7.71008C0.246002 7.87044 0.380928 7.99999 0.546616 7.99999H7.94539C8.11162 7.99999 8.246 7.87044 8.246 7.71008V1.0327C8.246 0.872336 8.11162 0.741745 7.94539 0.741745ZM7.83961 4.95722V7.22898C7.83961 7.27913 7.79751 7.32092 7.74516 7.32092H4.13779H0.746846C0.694494 7.32092 0.652398 7.27913 0.652398 7.22898V5.38556V3.1138C0.652398 3.06365 0.694494 3.02186 0.746846 3.02186H4.35367H7.74516C7.79751 3.02186 7.83961 3.06365 7.83961 3.1138V4.95722Z" fill="white"/>
<path d="M2.3055 4.6647H1.36912V5.57153H2.3055V4.6647Z" fill="white"/>
<path d="M3.89924 4.6647H2.96286V5.57153H3.89924V4.6647Z" fill="white"/>
<path d="M5.47679 4.6647H4.54095V5.57153H5.47679V4.6647Z" fill="white"/>
<path d="M7.07107 4.6647H6.13415V5.57153H7.07107V4.6647Z" fill="white"/>
<path d="M2.32546 5.97166H1.38854V6.87849H2.32546V5.97166Z" fill="white"/>
<path d="M3.91921 5.97166H2.98283V6.87849H3.91921V5.97166Z" fill="white"/>
<path d="M5.49676 5.97166H4.56092V6.87849H5.49676V5.97166Z" fill="white"/>
<path d="M7.09104 5.97166H6.15466V6.87849H7.09104V5.97166Z" fill="white"/>
<path d="M5.48327 3.37968H4.54689V4.28599H5.48327V3.37968Z" fill="white"/>
<path d="M7.07754 3.37968H6.1417V4.28599H7.07754V3.37968Z" fill="white"/>
</svg>
