<svg width="43" height="48" viewBox="0 0 43 48" fill="none" xmlns="http://www.w3.org/2000/svg">
<path d="M39.091 27.0572V8.36803C39.091 5.95547 37.18 4.00003 34.8222 4.00003H29.3187V3.04603C29.3187 1.36341 27.9861 0 26.3419 0H12.7499C11.1056 0 9.77313 1.36341 9.77313 3.04603V4.00003H4.26873C1.911 4.00003 0 5.95547 0 8.36803V43.632C0 46.0446 1.911 48 4.26873 48H31.2727C37.7486 48 43 42.6265 43 36C43.0001 32.4469 41.4897 29.2546 39.091 27.0572ZM13.6823 4.00003H25.4092V8.00006H13.6823V4.00003ZM4.26873 44C4.06992 44 3.90912 43.8354 3.90912 43.632V8.36803C3.90912 8.16459 4.06992 8.00006 4.26873 8.00006H9.77277V8.95406C9.77277 10.6366 11.1052 12 12.7496 12H12.7499H26.3415H26.3419C27.9861 12 29.3187 10.6366 29.3187 8.95397V7.99997H34.8222C35.021 7.99997 35.1818 8.1645 35.1818 8.36794V24.6839C34.1882 24.3245 33.1333 24.0983 32.0373 24.026C32.0303 24.0255 32.0233 24.025 32.0163 24.0246C31.9461 24.0201 31.8759 24.0159 31.8054 24.0127C31.7662 24.0109 31.7269 24.0097 31.6876 24.0082C31.6408 24.0065 31.594 24.0045 31.547 24.0035C31.4558 24.0012 31.3643 23.9999 31.2727 23.9999C24.7968 23.9999 19.5454 29.3734 19.5454 35.9999C19.5454 36.0998 19.5467 36.1994 19.5491 36.2988C19.5499 36.332 19.5515 36.365 19.5525 36.3981C19.5546 36.4642 19.5567 36.5303 19.5598 36.5962C19.5617 36.6353 19.5643 36.6741 19.5665 36.7131C19.5699 36.7727 19.5733 36.8323 19.5776 36.8917C19.5805 36.933 19.5842 36.9742 19.5876 37.0154C19.5923 37.0721 19.5969 37.1288 19.6023 37.1853C19.6064 37.2277 19.6109 37.2698 19.6154 37.312C19.6213 37.3672 19.6273 37.4222 19.6339 37.4771C19.639 37.5199 19.6445 37.5625 19.6501 37.6051C19.6571 37.659 19.6645 37.7129 19.6721 37.7665C19.6784 37.8095 19.6848 37.8522 19.6914 37.8951C19.6996 37.9484 19.7083 38.0017 19.7172 38.0547C19.7244 38.0971 19.7316 38.1394 19.7392 38.1816C19.7488 38.2349 19.7588 38.2882 19.7691 38.3412C19.7771 38.3827 19.7851 38.4243 19.7936 38.4657C19.8045 38.5192 19.8161 38.5725 19.8277 38.6257C19.8366 38.6663 19.8453 38.707 19.8546 38.7475C19.8669 38.8017 19.8801 38.8557 19.8932 38.9096C19.9028 38.9486 19.9119 38.9876 19.9218 39.0264C19.9362 39.0831 19.9514 39.1394 19.9666 39.1958C19.9761 39.2313 19.9854 39.267 19.9953 39.3023C20.0131 39.3661 20.0318 39.4294 20.0506 39.4928C20.0589 39.5204 20.0666 39.5482 20.075 39.5758C20.1027 39.6665 20.1313 39.7567 20.1608 39.8464C20.165 39.8589 20.1695 39.8713 20.1737 39.8839C20.1994 39.9609 20.2257 40.0377 20.2529 40.114C20.264 40.1452 20.2757 40.1759 20.2871 40.2068C20.3082 40.2643 20.3292 40.3218 20.351 40.3789C20.3646 40.4141 20.3787 40.4492 20.3926 40.4842C20.4132 40.5365 20.4337 40.5888 20.455 40.6407C20.4702 40.6776 20.4858 40.7141 20.5012 40.7508C20.5223 40.8007 20.5434 40.8504 20.565 40.8999C20.5813 40.9372 20.598 40.9742 20.6146 41.0112C20.6364 41.0595 20.6582 41.1077 20.6805 41.1557C20.6979 41.1931 20.7157 41.2303 20.7335 41.2675C20.756 41.3148 20.7788 41.3618 20.802 41.4086C20.8203 41.4457 20.8388 41.4826 20.8575 41.5193C20.8812 41.5658 20.9051 41.6122 20.9293 41.6584C20.9483 41.6948 20.9676 41.7312 20.987 41.7674C21.0118 41.8136 21.037 41.8595 21.0623 41.9053C21.082 41.9408 21.1017 41.9765 21.1217 42.0118C21.1479 42.0578 21.1744 42.1035 21.2011 42.1492C21.2212 42.1837 21.2413 42.2183 21.2617 42.2525C21.2897 42.2992 21.3183 42.3456 21.3468 42.3919C21.3667 42.4243 21.3865 42.4568 21.4068 42.4891C21.4377 42.5382 21.4694 42.5869 21.501 42.6355C21.5197 42.6643 21.5381 42.6934 21.557 42.722C21.5946 42.7787 21.6329 42.8348 21.6714 42.8907C21.6851 42.9108 21.6986 42.9311 21.7124 42.9511C21.7651 43.0268 21.8186 43.1019 21.873 43.1764C21.8846 43.1922 21.8966 43.2077 21.9082 43.2235C21.9512 43.2818 21.9944 43.3399 22.0384 43.3973C22.0587 43.424 22.0797 43.45 22.1002 43.4765C22.1362 43.5226 22.1721 43.5687 22.2087 43.6143C22.2322 43.6434 22.256 43.6721 22.2797 43.7011C22.3144 43.7434 22.349 43.7857 22.3842 43.8275C22.4093 43.8573 22.4348 43.8867 22.4602 43.9163C22.4842 43.9443 22.5078 43.9725 22.532 44.0002H4.26873V44ZM31.2728 44C26.9558 44 23.4547 40.4174 23.4547 36C23.4547 31.5826 26.9558 28 31.2728 28C31.3917 28 31.5098 28.0039 31.6276 28.0092C31.6878 28.0121 31.7479 28.0164 31.808 28.0208C31.8553 28.024 31.9026 28.0276 31.9497 28.0318C33.397 28.1648 34.7677 28.7216 35.9583 29.6419L36.5518 30.1006C38.112 31.5633 39.091 33.6648 39.091 36C39.091 40.4174 35.5898 44 31.2728 44Z" fill="white"/>
<path d="M33.7997 32.5858L31.2727 35.1716L30.7003 34.5859C29.937 33.8048 28.6994 33.8048 27.9361 34.5859C27.1728 35.3669 27.1728 36.6333 27.9361 37.4143L29.8906 39.4143C30.6539 40.1953 31.8915 40.1953 32.6548 39.4143L36.5639 35.4142C37.3272 34.6332 37.3272 33.3668 36.5639 32.5858C35.8006 31.8048 34.5631 31.8048 33.7997 32.5858Z" fill="white"/>
<path d="M9.77275 20H13.6819C14.7613 20 15.6364 19.1046 15.6364 18C15.6364 16.8954 14.7613 16 13.6819 16H9.77275C8.69329 16 7.81824 16.8954 7.81824 18C7.81824 19.1046 8.69329 20 9.77275 20Z" fill="white"/>
<path d="M21.5 20H29.3182C30.3977 20 31.2727 19.1046 31.2727 18C31.2727 16.8954 30.3977 16 29.3182 16H21.5C20.4206 16 19.5455 16.8954 19.5455 18C19.5455 19.1046 20.4206 20 21.5 20Z" fill="white"/>
<path d="M15.6364 32H7.81829C6.73883 32 5.86377 32.8954 5.86377 33.9999C5.86377 35.1045 6.73883 36 7.81829 36H15.6364C16.7159 36 17.591 35.1046 17.591 34C17.591 32.8955 16.7159 32 15.6364 32Z" fill="white"/>
<path d="M9.77275 28H19.5455C20.625 28 21.5 27.1046 21.5 26.0001C21.5 24.8955 20.625 24.0001 19.5455 24.0001H9.77275C8.69329 24.0001 7.81824 24.8955 7.81824 26.0001C7.81824 27.1045 8.69329 28 9.77275 28Z" fill="white"/>
</svg>
