<svg width="20" height="20" viewBox="0 0 20 20" fill="none" xmlns="http://www.w3.org/2000/svg">
<path d="M5.42383 8.38643L7.81992 8.3544L7.99844 8.40088C8.83906 8.88568 9.59141 9.49079 10.243 10.21C11.1027 8.82669 12.0184 7.55669 12.9859 6.38866C14.0457 5.1085 15.1703 3.9475 16.3516 2.88767L16.5855 2.79782H19.2L18.673 3.3834C17.0527 5.1839 15.5828 7.04455 14.2547 8.96342C12.9258 10.8842 11.7379 12.8668 10.6816 14.9075L10.3531 15.5419L10.0508 14.8958C8.94805 12.5289 7.39336 10.5131 5.22852 9.0267L5.42383 8.38643ZM9.99922 0C11.5012 0 12.975 0.334395 14.3289 0.984433C14.416 1.02623 14.4535 1.1321 14.4117 1.2196C14.3996 1.2446 14.3824 1.2657 14.3617 1.28211L12.8953 2.48218C12.8704 2.50306 12.8402 2.51672 12.808 2.52168C12.7759 2.52664 12.743 2.5227 12.7129 2.5103C11.8434 2.19544 10.9258 2.03723 10.0012 2.03723C7.88125 2.03723 5.86914 2.86892 4.3707 4.36901C2.87109 5.86948 2.03867 7.8782 2.03867 9.9998C2.03867 12.1202 2.87031 14.1309 4.37031 15.6302C5.87109 17.1303 7.8793 17.9628 10.0012 17.9628C12.1191 17.9628 14.1336 17.1303 15.6309 15.6306C17.1313 14.1309 17.9629 12.121 17.9629 9.9998C17.9629 9.48415 17.9156 8.9767 17.8164 8.47003C17.8059 8.41495 17.8223 8.35986 17.8566 8.32041L19.15 6.68125C19.2109 6.60546 19.3227 6.59414 19.3984 6.65508C19.427 6.67813 19.4461 6.70821 19.4562 6.74102C19.8176 7.78913 20 8.89154 20 9.9998C20 12.6574 18.9504 15.1911 17.0711 17.0705C15.1922 18.9492 12.6578 20 10.0012 20C7.34375 20 4.81016 18.9495 2.93086 17.0705L2.92383 17.0627C1.04727 15.1833 0 12.6558 0 9.9998C0 7.34262 1.04961 4.80888 2.92891 2.92947L2.93672 2.92244C4.81602 1.04733 7.34453 0 9.99922 0Z" fill="black"/>
</svg>
