<svg width="100" height="120" viewBox="0 0 100 120" fill="none" xmlns="http://www.w3.org/2000/svg">
<g clip-path="url(#clip0_1748_136)">
<path fill-rule="evenodd" clip-rule="evenodd" d="M22.1957 9.24015H33.2029C33.852 4.02908 38.1313 0 43.3222 0C48.4821 0 52.7375 3.97514 53.4272 9.13227L64.5871 9.24015C65.2076 9.24015 65.7088 9.73265 65.7088 10.3447V22.5047C65.7088 23.1144 65.2076 23.6046 64.5871 23.6046H22.2076C21.5967 23.6046 21.0835 23.1144 21.0835 22.5047V10.3447C21.0814 10.2001 21.1087 10.0565 21.1637 9.92233C21.2187 9.78816 21.3003 9.66609 21.4039 9.56326C21.5074 9.46043 21.6308 9.3789 21.7667 9.32342C21.9027 9.26795 22.0485 9.23964 22.1957 9.24015ZM75.1742 71.2078C88.8902 71.2078 100 82.1318 100 95.6027C100 109.081 88.8831 120 75.1742 120C61.4558 120 50.3484 109.074 50.3484 95.6027C50.3484 82.1224 61.4654 71.2078 75.1742 71.2078ZM79.3962 86.2899C80.1671 85.523 80.6468 84.9085 81.5943 85.8677L84.6706 88.9634C85.6802 89.9437 85.6301 90.5183 84.6778 91.4329L80.4296 95.6051L84.6516 99.7514C85.432 100.509 86.0573 100.98 85.0811 101.914L81.9308 104.934C80.9308 105.929 80.3461 105.877 79.4153 104.941L75.1742 100.772L70.9284 104.941C70 105.877 69.4129 105.929 68.4153 104.934L65.2649 101.914C64.2912 100.98 64.9165 100.509 65.6969 99.7514L69.9165 95.6051L65.6683 91.4329C64.7184 90.5183 64.6659 89.9437 65.6754 88.9634L68.7494 85.8677C69.6993 84.9085 70.1814 85.523 70.9499 86.2899L75.1742 90.4386L79.3962 86.2899ZM9.95943 13.9024H15.6706V19.6201H9.95943C8.821 19.6201 7.78282 20.0797 7.0358 20.8138C6.2864 21.5502 5.81862 22.568 5.81862 23.6843V97.6829C5.81862 98.8016 6.28401 99.8241 7.03103 100.561C7.78282 101.292 8.821 101.754 9.95943 101.754H43.9952C44.3986 103.731 44.9928 105.647 45.7542 107.472H9.95943C7.23628 107.472 4.74224 106.367 2.93795 104.594C1.12649 102.81 0 100.366 0 97.6829V23.6843C0 20.992 1.12172 18.546 2.92363 16.7753C4.72554 15.0047 7.21718 13.9024 9.95943 13.9024ZM80.9737 64.8781V23.6843C80.9737 22.568 80.5036 21.5478 79.7589 20.8091C79.0072 20.0774 77.9714 19.6201 76.8306 19.6201H71.1241V13.9024H76.8306C79.5609 13.9024 82.0453 15.007 83.852 16.7753C85.6659 18.56 86.79 21.0084 86.79 23.6843V66.5103C84.9332 65.7927 82.9857 65.2416 80.9737 64.8781ZM31.6301 62.9878C29.9284 62.9878 28.5465 61.6276 28.5465 59.9554C28.5465 58.2833 29.9284 56.9254 31.6301 56.9254H65.716C67.4177 56.9254 68.8019 58.2833 68.8019 59.9554C68.8019 61.6276 67.4177 62.9878 65.716 62.9878H31.6301ZM21.3604 56.569C23.2625 56.569 24.8067 58.0863 24.8067 59.9554C24.8067 61.8269 23.2625 63.3443 21.3604 63.3443C19.4582 63.3443 17.9141 61.8269 17.9141 59.9554C17.9141 58.0863 19.4582 56.569 21.3604 56.569ZM21.3604 75.0094C23.2625 75.0094 24.8067 76.5244 24.8067 78.3935C24.8067 80.265 23.2625 81.7824 21.3604 81.7824C19.4582 81.7824 17.9141 80.265 17.9141 78.3935C17.9141 76.5244 19.4582 75.0094 21.3604 75.0094ZM31.6325 81.4259C29.9308 81.4259 28.5465 80.0657 28.5465 78.3935C28.5465 76.7214 29.9308 75.3635 31.6325 75.3635H50.9547C49.3462 77.2199 47.9637 79.2545 46.8353 81.4259H31.6325ZM21.3604 38.1356C23.2625 38.1356 24.8067 39.6506 24.8067 41.522C24.8067 43.3912 23.2625 44.9062 21.3604 44.9062C19.4582 44.9062 17.9141 43.3912 17.9141 41.522C17.9141 39.6506 19.4582 38.1356 21.3604 38.1356ZM31.6301 44.5497C29.9284 44.5497 28.5465 43.1918 28.5465 41.5197C28.5465 39.8476 29.9284 38.4873 31.6301 38.4873H65.716C67.4177 38.4873 68.8019 39.8476 68.8019 41.5197C68.8019 43.1918 67.4177 44.5497 65.716 44.5497H31.6301ZM43.2052 4.72796C46.1408 4.72796 48.5179 7.06614 48.5179 9.95075C48.5179 12.833 46.1408 15.1689 43.2052 15.1689C40.2721 15.1689 37.8926 12.833 37.8926 9.95075C37.8926 7.06614 40.2721 4.72796 43.2052 4.72796Z" fill="black"/>
</g>
<defs>
<clipPath id="clip0_1748_136">
<rect width="100" height="120" fill="white"/>
</clipPath>
</defs>
</svg>
