<svg width="7" height="7" viewBox="0 0 7 7" fill="none" xmlns="http://www.w3.org/2000/svg">
<path d="M3.50011 4.38016C4.23701 4.38016 5.00455 4.54048 5.80273 4.86112C6.60091 5.18176 7 5.60137 7 6.11995V7H0V6.11995C0 5.60137 0.399089 5.18176 1.19727 4.86112C1.99545 4.54048 2.76299 4.38016 3.49989 4.38016H3.50011ZM3.50011 3.50011C3.02257 3.50011 2.61322 3.32953 2.27206 2.98837C1.9309 2.64721 1.76032 2.23785 1.76032 1.76032C1.76032 1.28278 1.9309 0.870006 2.27206 0.522004C2.61322 0.174001 3.02257 0 3.50011 0C3.97765 0 4.387 0.174001 4.72816 0.522004C5.06932 0.870006 5.2399 1.28278 5.2399 1.76032C5.2399 2.23785 5.06932 2.64721 4.72816 2.98837C4.387 3.32953 3.97765 3.50011 3.50011 3.50011Z" fill="black"/>
</svg>
