<svg width="25" height="25" viewBox="0 0 25 25" fill="none" xmlns="http://www.w3.org/2000/svg">
<g clip-path="url(#clip0_1667_144)">
<path d="M10.1702 0H10.1734V0.00146078C12.9809 0.00229551 15.523 1.17029 17.3626 3.05762C19.1992 4.94224 20.3369 7.54743 20.3387 10.4248H20.3401V10.4316V10.44H20.3387C20.3377 11.5996 20.1521 12.7157 19.811 13.7564C19.7538 13.931 19.694 14.0988 19.6325 14.2591V14.2606C19.3383 15.0243 18.9581 15.7464 18.504 16.4114L24.4208 21.8662L24.4244 21.8695L24.4564 21.9L24.4586 21.9023C24.7927 22.2285 24.9746 22.6653 24.9976 23.1085C25.0199 23.5467 24.8871 23.995 24.5949 24.3545L24.5927 24.3579L24.5571 24.4002L24.55 24.4075L24.5203 24.4409L24.517 24.4453C24.1986 24.788 23.7736 24.9741 23.3411 24.9975C22.9144 25.0207 22.477 24.8848 22.1262 24.5847L22.1232 24.5824L22.0817 24.5459L22.0758 24.5409L16.0241 18.962C15.8451 19.0914 15.6624 19.2143 15.4774 19.3303C15.2266 19.4878 14.9668 19.6362 14.7017 19.7717C13.3387 20.4691 11.7986 20.8614 10.1704 20.8614V20.8629H10.1671V20.8614C7.35968 20.8606 4.81714 19.6926 2.97752 17.8052C1.14035 15.9206 0.00325524 13.315 0.00142417 10.4385H0V10.4316V10.4283H0.00142417C0.00223797 7.54869 1.14096 4.94078 2.98098 3.05386C4.81836 1.17029 7.35826 0.00333893 10.1635 0.00146078V0H10.1702ZM10.1734 2.33933V2.3408H10.1702H10.1635V2.33933C7.98936 2.3408 6.01873 3.24711 4.59212 4.70976C3.16572 6.17242 2.28131 8.19581 2.2807 10.4285H2.28212V10.4318V10.4387H2.2807C2.28212 12.6687 3.16511 14.689 4.59171 16.1527C6.01771 17.616 7.99038 18.5231 10.1669 18.5235V18.5221H10.1702H10.1769V18.5235C12.351 18.5221 14.3208 17.6162 15.7478 16.1531C17.1742 14.6904 18.0586 12.6677 18.059 10.4352H18.0578V10.4318V10.425H18.059C18.0578 8.19498 17.174 6.17367 15.7482 4.71039C14.3222 3.24711 12.3502 2.33996 10.1734 2.33933Z" fill="black"/>
</g>
<defs>
<clipPath id="clip0_1667_144">
<rect width="25" height="25" fill="white"/>
</clipPath>
</defs>
</svg>
